<svg viewBox="0 0 253 254" fill="none" xmlns="http://www.w3.org/2000/svg">
<rect opacity="0.203637" x="29" y="29.6156" width="196" height="196" rx="29" fill="#D1C4E9"/>
<path fill-rule="evenodd" clip-rule="evenodd" d="M61.0745 3.46924C57.1789 2.42543 53.1752 4.73696 52.1314 8.63254C51.0878 12.5271 53.3991 16.5318 57.2947 17.5756C61.1903 18.6194 65.1942 16.3069 66.2378 12.4123C67.2816 8.51675 64.9701 4.51306 61.0745 3.46924Z" fill="#D1C4E9"/>
<path fill-rule="evenodd" clip-rule="evenodd" d="M44.6741 64.6764C40.7785 63.6326 36.7748 65.9441 35.731 69.8397C34.6874 73.7343 36.9987 77.739 40.8943 78.7828C44.7899 79.8266 48.7938 77.5141 49.8374 73.6195C50.8812 69.7239 48.5696 65.7202 44.6741 64.6764Z" fill="#D1C4E9"/>
<path fill-rule="evenodd" clip-rule="evenodd" d="M28.2737 125.883C24.3781 124.84 20.3744 127.151 19.3306 131.047C18.2868 134.942 20.5983 138.946 24.4939 139.99C28.3895 141.034 32.3932 138.722 33.437 134.827C34.4808 130.931 32.1693 126.927 28.2737 125.883Z" fill="#D1C4E9"/>
<path fill-rule="evenodd" clip-rule="evenodd" d="M11.8733 187.091C7.97774 186.047 3.97379 188.359 2.93023 192.254C1.88642 196.149 4.19795 200.153 8.09353 201.197C11.9891 202.241 15.9928 199.929 17.0366 196.034C18.0802 192.139 15.7689 188.134 11.8733 187.091Z" fill="#D1C4E9"/>
<path fill-rule="evenodd" clip-rule="evenodd" d="M122.282 19.8698C118.386 18.8259 114.383 21.1375 113.339 25.033C112.295 28.9277 114.607 32.9323 118.502 33.9761C122.398 35.02 126.402 32.7075 127.445 28.8128C128.489 24.9173 126.178 20.9136 122.282 19.8698Z" fill="#D1C4E9"/>
<path fill-rule="evenodd" clip-rule="evenodd" d="M105.882 81.0769C101.986 80.0331 97.9824 82.3446 96.9385 86.2402C95.895 90.1348 98.2062 94.1395 102.102 95.1833C105.997 96.2271 110.001 93.9146 111.045 90.02C112.089 86.1244 109.777 82.1207 105.882 81.0769Z" fill="#D1C4E9"/>
<path fill-rule="evenodd" clip-rule="evenodd" d="M89.4812 142.284C85.5857 141.24 81.582 143.552 80.5381 147.447C79.4943 151.343 81.8059 155.347 85.7014 156.39C89.597 157.434 93.6007 155.123 94.6445 151.227C95.6883 147.331 93.3768 143.328 89.4812 142.284Z" fill="#D1C4E9"/>
<path fill-rule="evenodd" clip-rule="evenodd" d="M73.0809 203.491C69.1853 202.447 65.1813 204.76 64.1378 208.654C63.094 212.55 65.4055 216.554 69.3011 217.597C73.1967 218.641 77.2003 216.33 78.2442 212.434C79.2877 208.54 76.9764 204.535 73.0809 203.491Z" fill="#D1C4E9"/>
<path fill-rule="evenodd" clip-rule="evenodd" d="M183.489 36.2701C179.593 35.2263 175.59 37.5379 174.546 41.4334C173.502 45.3281 175.814 49.3327 179.709 50.3765C183.605 51.4203 187.609 49.1078 188.652 45.2132C189.696 41.3177 187.385 37.314 183.489 36.2701Z" fill="#D1C4E9"/>
<path fill-rule="evenodd" clip-rule="evenodd" d="M167.089 97.4773C163.193 96.4335 159.189 98.745 158.146 102.641C157.102 106.535 159.413 110.54 163.309 111.584C167.204 112.627 171.208 110.315 172.252 106.42C173.296 102.525 170.984 98.5211 167.089 97.4773Z" fill="#D1C4E9"/>
<path fill-rule="evenodd" clip-rule="evenodd" d="M150.688 158.684C146.793 157.641 142.789 159.952 141.745 163.848C140.701 167.743 143.013 171.747 146.908 172.791C150.804 173.835 154.808 171.523 155.852 167.627C156.895 163.732 154.584 159.728 150.688 158.684Z" fill="#D1C4E9"/>
<path fill-rule="evenodd" clip-rule="evenodd" d="M134.288 219.891C130.392 218.848 126.388 221.16 125.345 225.055C124.301 228.95 126.613 232.954 130.508 233.998C134.404 235.042 138.407 232.73 139.451 228.835C140.495 224.94 138.183 220.935 134.288 219.891Z" fill="#D1C4E9"/>
<path fill-rule="evenodd" clip-rule="evenodd" d="M244.696 52.6705C240.801 51.6267 236.797 53.9383 235.753 57.8338C234.709 61.7284 237.021 65.7331 240.916 66.7769C244.812 67.8207 248.816 65.5082 249.859 61.6136C250.903 57.718 248.592 53.7144 244.696 52.6705Z" fill="#D1C4E9"/>
<path fill-rule="evenodd" clip-rule="evenodd" d="M228.296 113.878C224.4 112.834 220.396 115.145 219.353 119.041C218.309 122.936 220.62 126.94 224.516 127.984C228.411 129.028 232.415 126.715 233.459 122.821C234.503 118.925 232.191 114.922 228.296 113.878Z" fill="#D1C4E9"/>
<path fill-rule="evenodd" clip-rule="evenodd" d="M211.895 175.085C208 174.041 203.996 176.352 202.952 180.248C201.908 184.144 204.22 188.147 208.116 189.191C212.011 190.235 216.015 187.923 217.059 184.028C218.102 180.132 215.791 176.129 211.895 175.085Z" fill="#D1C4E9"/>
<path fill-rule="evenodd" clip-rule="evenodd" d="M195.495 236.292C191.599 235.248 187.595 237.56 186.552 241.455C185.508 245.351 187.82 249.354 191.715 250.398C195.611 251.442 199.614 249.13 200.658 245.235C201.702 241.34 199.391 237.336 195.495 236.292Z" fill="#D1C4E9"/>
</svg>
